<?xml version="1.0" encoding="UTF-8"?>
<svg width="32px" height="32px" viewBox="0 0 32 32" version="1.1" xmlns="http://www.w3.org/2000/svg" xmlns:xlink="http://www.w3.org/1999/xlink">
  <title>brutal</title>
  <path fill="#fff" d="M16 1c-7.5 0-15 3.75-15 9.375 0 3.75 2.813 5.625 2.813 9.375 0 2.813-0.938 2.813-0.938 4.688 0 0.937 3.001 2 5.625 2.812v3.75h15v-3.75s5.66-1.747 5.625-2.813c-0.058-1.747-0.938-1.875-0.938-4.687 0-1.875 2.853-5.714 2.812-9.375 0-5.625-7.5-9.375-15-9.375zM10.375 12.25c2.071 0 3.75 1.679 3.75 3.75s-1.679 3.75-3.75 3.75c-2.071-0-3.75-1.679-3.75-3.75s1.679-3.75 3.75-3.75zM21.625 12.25c2.071 0 3.75 1.679 3.75 3.75s-1.679 3.75-3.75 3.75c-2.071 0-3.75-1.679-3.75-3.75s1.679-3.75 3.75-3.75zM16 18.813c0.938 0 2.813 3.75 2.813 4.688 0 1.875 0 1.875-0.938 1.875h-3.75c-0.938 0-0.938 0-0.938-1.875 0-0.938 1.875-4.687 2.813-4.687z"></path>
</svg>