<svg width="281" height="282" viewBox="0 0 281 282" xmlns="http://www.w3.org/2000/svg"><title>circles</title><g fill-rule="evenodd" fill="rgba(240,240,235,0.5"><path d="M246.22 104.447c-1.553-5.893-3.954-11.566-6.865-16.94-2.934-5.37-6.385-10.425-10.05-15.295-1.615-2.204-3.396-4.275-5.17-6.354-1.848-2.01-3.694-4.03-5.683-5.906l-1.475-1.425c-.492-.476-1.014-.918-1.52-1.376-1.028-.9-2.042-1.82-3.094-2.69l-3.2-2.57c-.528-.43-1.082-.83-1.634-1.24l-1.66-1.21c-4.54-3.26-9.51-5.77-14.5-8.26-.52-.26-1.03-.54-1.56-.79l-1.59-.73c-1.06-.48-2.12-.96-3.19-1.43l-3.25-1.28-1.63-.63-1.65-.57-3.3-1.14c-1.11-.35-2.23-.67-3.34-1.01-2.22-.71-4.49-1.26-6.74-1.87-5.51-1.38-11.19-2.07-16.84-2.32-1.41-.08-2.82-.07-4.24-.1l-2.12-.04-2.12.03c-1.41.03-2.83.01-4.24.06-1.42.05-2.84.09-4.26.12-.61.01-1.21.04-1.81.09l-1.81.15-1.81.18c-.61.06-1.21.13-1.81.23-2.4.38-4.8.78-7.17 1.36-4.76 1.05-9.41 2.56-14.06 4.05-5.97 1.96-11.72 4.6-17.19 7.7-5.47 3.11-10.66 6.71-15.55 10.67-4.18 3.43-8.1 7.17-11.76 11.15-3.62 4.02-6.94 8.3-9.95 12.8-2.98 4.52-5.62 9.26-7.93 14.15-2.26 4.92-4.16 10.01-5.71 15.19-2.44 8.42-4.18 17.15-4.8 25.88-.42 6.25-.5 12.5.01 18.78.54 6.27 1.65 12.53 3.48 18.57 3.12 10.27 7.32 20.22 12.98 29.31 1.14 1.76 2.22 3.57 3.44 5.27l1.81 2.58c.61.85 1.27 1.67 1.92 2.49.65.82 1.29 1.65 1.99 2.43.69.78 1.4 1.56 2.12 2.32l1.08 1.13c.37.37.75.72 1.14 1.08.76.71 1.55 1.4 2.34 2.08.47.41.95.86 1.41 1.32.46.46.9.95 1.34 1.42 5.08 5.49 11.08 10.11 17.51 13.92 6.44 3.82 13.32 6.85 20.34 9.33 13.56 4.8 28.04 7.11 42.22 6.37 7.56-.38 15.04-1.84 22.42-3.38 6.25-1.31 12.29-3.51 18.04-6.19 5.77-2.67 11.24-5.87 16.63-9.21 6.64-4.11 12.8-9.02 18.32-14.57 5.53-5.54 10.45-11.69 14.72-18.28.42-.66.85-1.32 1.24-2l1.14-2.06c.76-1.37 1.51-2.75 2.27-4.11.59-1.04 1.15-1.93 1.69-2.65.54-.73 1.01-1.3 1.5-1.71.95-.82 1.83-1 2.61-.54.87.51 1.33 1.65 1.26 3.15-.02.38-.07.78-.15 1.2-.1.41-.23.84-.4 1.28-.33.89-.82 1.82-1.46 2.77l-4.19 6.11c-1.44 2-2.8 4.05-4.3 6-2.89 3.97-6.07 7.74-9.52 11.19-10.71 10.51-22.89 19.34-36.19 26.21-7.34 3.79-15.2 6.61-23.25 8.54-8.07 1.93-16.33 2.97-24.56 3.29-3.65.13-7.33-.09-10.98-.5-1.83-.15-3.65-.44-5.47-.67-.91-.12-1.82-.21-2.73-.35-.91-.14-1.81-.26-2.72-.38-.74-.09-1.47-.19-2.2-.3-.73-.11-1.46-.27-2.18-.41-1.45-.3-2.91-.6-4.34-.98-1.43-.39-2.86-.8-4.28-1.23-1.42-.43-2.81-.94-4.21-1.43-.7-.25-1.4-.49-2.1-.75l-2.07-.82c-1.37-.55-2.77-1.06-4.12-1.66-1.36-.58-2.72-1.15-4.09-1.72-1.35-.6-2.71-1.2-4.07-1.78-.94-.38-1.84-.85-2.72-1.35-.89-.49-1.77-1.01-2.64-1.54-1.74-1.08-3.41-2.27-5.15-3.35-5.14-3.34-9.96-7.16-14.49-11.29-4.54-4.11-8.75-8.58-12.8-13.22-.69-.8-1.37-1.61-1.98-2.49-.61-.88-1.2-1.77-1.78-2.68l-.87-1.36c-.29-.45-.56-.92-.83-1.38-.56-.93-1.12-1.85-1.71-2.75l-.55-.86-.52-.88-1.03-1.77c-.68-1.18-1.35-2.37-1.96-3.6-.62-1.22-1.23-2.45-1.83-3.68-.56-1.25-1.11-2.5-1.65-3.76-2.11-5.05-3.94-10.21-5.45-15.47-2.1-7.13-3.35-14.5-3.9-21.87-.55-7.38-.42-14.72.23-22.09.82-9.09 2.85-18.16 5.79-26.85 2.78-8.28 6.48-16.37 11.4-23.69 1.63-2.49 3.39-4.88 5.14-7.28l2.74-3.52c.45-.59.93-1.16 1.41-1.73l1.44-1.71 1.45-1.7 1.51-1.65 1.51-1.64.76-.82.79-.79c1.05-1.05 2.12-2.1 3.19-3.13 1.11-1 2.22-1.99 3.34-2.97.73-.65 1.5-1.26 2.26-1.88l2.3-1.84c.76-.62 1.57-1.17 2.37-1.74.8-.57 1.61-1.12 2.43-1.66 6.91-4.47 14.26-8.28 21.93-11.27 7.66-2.99 15.67-5.14 23.77-6.26.9-.12 1.8-.24 2.7-.34.91-.09 1.82-.15 2.72-.22l2.73-.19c.91-.07 1.82-.08 2.73-.13 1.83-.07 3.65-.23 5.47-.32.91-.06 1.83-.13 2.74-.23l2.75-.31c1.27-.15 2.62-.06 3.98.08 1.36.15 2.74.44 4.09.56 7.51.74 14.95 2.28 22.17 4.48 7.22 2.2 14.22 5.05 20.96 8.38 7.71 3.83 15.22 8.29 22.02 13.69 5.3 4.15 10.15 8.93 14.26 14.33 3.93 5.17 8.05 10.32 11.37 15.99 4.12 7.05 7.44 14.58 9.89 22.37.25.8.43 1.62.49 2.41.05.79.02 1.54-.08 2.2-.2 1.31-.67 2.23-1.31 2.34-.59.1-1.51-.66-2.39-1.73-.44-.54-.85-1.17-1.23-1.81-.39-.63-.71-1.295-.92-1.925-.12-.35-.19-.71-.29-1.07"/><path d="M135.774 161.523c-.103-.053-.206-.103-.31-.15l-.298-.19c-.2-.12-.4-.23-.607-.328-.2-.124-.39-.257-.59-.367-.1-.056-.2-.11-.31-.16-.1-.054-.19-.13-.29-.192-.19-.126-.39-.242-.59-.345-.19-.12-.38-.26-.58-.38l-.3-.16c-.1-.06-.19-.13-.29-.2-.19-.13-.39-.25-.59-.36-1.53-1.05-3.13-2.05-4.72-3.23-.17-.12-.35-.23-.5-.38l-.42-.45-.21-.23c-.07-.07-.12-.17-.18-.25-.12-.17-.24-.34-.36-.5-.14-.15-.21-.35-.32-.53-.1-.17-.21-.35-.33-.51-.09-.18-.19-.36-.3-.53-.1-.17-.25-.32-.33-.5-.15-.25-.3-.49-.45-.74-.11-.26-.22-.52-.35-.78-.07-.12-.12-.26-.16-.4-.05-.13-.09-.27-.14-.4-.05-.13-.12-.26-.15-.39-.04-.13-.07-.27-.12-.4-.35-1.07-.71-2.1-1.27-3.14-.63-1.11-.23-2.43-.28-3.66-.03-1.2.1-2.4.23-3.54.05-.28.09-.56.11-.85.07-.27.12-.55.16-.83l.02-.21.05-.2c.03-.13.06-.27.08-.41l.06-.42c.03-.13.07-.27.1-.41.04-.2.08-.39.15-.59.09-.18.19-.36.29-.54.16-.36.48-.67.72-1 .11-.16.27-.31.42-.46.14-.15.28-.3.4-.46.14-.15.29-.29.42-.44.06-.07.12-.15.18-.23l.08-.12.1-.11c.14-.17.27-.36.39-.55l.09-.14.11-.13c.07-.09.14-.18.2-.27.23-.38.55-.71.79-1.09.13-.19.3-.34.43-.53.07-.09.14-.18.2-.27.06-.09.16-.16.23-.25.15-.16.3-.33.45-.51.17-.15.34-.3.5-.46 2.03-1.9 4.44-3.32 6.92-4.12.89-.29 1.8-.47 2.7-.64.92-.12 1.84-.17 2.77-.21.24.01.48.03.72.02.11 0 .23-.01.35-.01.12.02.24.03.36.04.24.02.48-.01.73.02.24.03.48.05.72.06h.18c.06 0 .11.02.17.03.12.02.23.03.35.04.23.03.47.01.69.08.23.04.45.07.68.08.22.04.44.1.67.12.89.16 1.72.51 2.5.95.1.05.2.1.3.14.09.06.19.12.28.17.19.12.4.18.59.28.19.11.39.2.6.26.22.06.41.17.64.21l.31.08c.1.03.19.09.28.14l.56.29.49.39c.08.07.17.12.25.19l.22.23c.64.55 1.15 1.23 1.85 1.71.95.72 1.51 1.83 2.3 2.67.24.31.48.64.6 1.03l.11.28c.04.09.09.18.11.28.06.2.13.38.22.55.11.17.15.36.27.51.05.09.12.16.19.23.03.04.07.07.11.11.03.04.07.08.1.11.29.29.77.5 1.37.69.23.06.35.17.38.31.02.14-.08.32-.21.51-.35.47-.71.91-2.34 1.39-1.67.48-2.81.6-2.88.36-.03-.06-.05-.13-.09-.19-.06-.06-.11-.12-.17-.17-.12-.11-.22-.22-.33-.33-.27-.2-.38-.45-.36-.8.17-1.09-.33-1.97-.83-2.81-.4-.62-.84-1.24-1.36-1.79-.53-.53-1.1-1.02-1.69-1.47-1.55-1.11-3.26-1.78-5.05-2.19-1.01-.22-2.1-.48-3.28-.46-.92.02-1.8-.12-2.67-.06-.87.05-1.73.23-2.44.76-.94.7-2.09.92-3.25 1.4-1.19.47-2.3 1.21-3.21 2.14-.93.92-1.78 1.92-2.51 2.99-.62.85-1.42 1.66-1.83 2.67-.06.17-.14.33-.21.5-.04.18-.08.35-.14.52l-.09.26c-.01.09-.03.18-.04.27-.03.18-.07.36-.12.54-.06.74-.21 1.47-.2 2.27-.01.15-.03.31-.04.46.02.16.02.31.02.47 0 .15-.02.31-.02.46.01.15.02.3.02.45 0 .16-.03.31-.03.46.01.15.01.3-.01.45-.01.15-.05.31-.07.46-.01.15-.03.31-.07.46-.02.11-.04.22-.05.32-.01.11.03.2.04.3.05.2.11.4.17.59l.33.53c.06.09.1.18.17.26.07.08.14.17.2.25.42.66.8 1.31 1.05 2.03.08.17.15.35.2.54.06.19.16.35.22.55l.09.29c.03.1.08.18.11.28.08.19.15.38.2.58.53 1.28 1.78 2.05 2.93 2.71.09.05.16.11.24.16.09.04.18.09.26.13.17.09.32.21.47.31.17.09.33.18.48.29.08.05.15.11.23.16.08.04.16.08.24.13.59.44 1.23.77 1.8 1.23.69.48 1.39.95 2.13 1.38.19.09.38.19.57.3.19.08.4.14.59.22.19.1.4.13.61.17.21.03.41.12.63.1.21 0 .41.04.61.09.2.02.42.02.62.03.1 0 .21 0 .31-.01.11-.03.22-.07.33-.12.22-.1.44-.2.66-.43.34-.36.58-.28.77.1.2.37.34 1.01.44 1.89.13 1.18.11 2.12-.26 2.7-.23.36-.47.84-.75.78-.96-.17-1.87-.16-2.83-.15l-.71-.08-.35-.04c-.12-.03-.23-.07-.35-.11-.22-.07-.45-.15-.68-.25-.21-.13-.42-.28-.62-.45"/><path d="M186.793 153.56c-.072.362-.116.713-.19 1.04-.076.326-.15.637-.222.938-.14.604-.25 1.182-.46 1.723-.16.46-.31.91-.46 1.37-.14.46-.35.9-.51 1.35l-.25.68c-.08.23-.17.46-.27.67l-.58 1.33c-.18.45-.41.88-.63 1.31-.22.43-.43.87-.65 1.31l-.73 1.27-.36.64-.4.61-.8 1.23c-.28.4-.59.78-.88 1.18-.56.81-1.24 1.52-1.88 2.26-.31.38-.69.7-1.03 1.05l-.52.52c-.17.18-.35.35-.54.5-.76.63-1.48 1.29-2.3 1.84-1.69 1.25-3.4 2.45-5.17 3.55l-1.36.78c-.45.26-.94.45-1.4.68-.93.46-1.95.75-2.94 1.04-1.25.27-2.37.85-3.54 1.38-.29.14-.57.29-.86.43l-.88.38c-.59.25-1.18.52-1.8.66-2.26.68-4.64.9-6.99.98-.59 0-1.17.06-1.76.03-.59-.02-1.18-.04-1.77-.04-.58 0-1.17-.08-1.76-.1l-.88-.03-.88-.08c-3.12-.21-6.22-.5-9.19-1.33l-1.26-.35-1.24-.43c-.83-.24-1.63-.61-2.44-.91-.41-.14-.8-.34-1.19-.52l-1.19-.53-1.16-.6c-.38-.2-.78-.37-1.15-.6-3.02-1.7-5.84-3.74-8.38-6.08-.35-.36-.71-.7-1.08-1.04-.18-.17-.38-.32-.55-.5l-.53-.53c-.35-.35-.74-.67-1.08-1.03-.34-.36-.69-.72-1.04-1.07-1.34-1.47-2.68-2.97-3.71-4.67l-.42-.62-.38-.65-.77-1.29c-.45-.89-.97-1.74-1.37-2.66l-.33-.67-.17-.33-.14-.34c-.18-.46-.38-.91-.58-1.37-.2-.45-.33-.93-.51-1.39-.16-.47-.34-.93-.46-1.41l-.41-1.42-.31-1.44-.16-.72-.1-.73c-.06-.48-.14-.97-.2-1.46l-.1-1.47c-.01-.24-.04-.48-.03-.73l.02-.74c.01-.49 0-.98.04-1.47l.16-1.47c.04-.29 0-.57.01-.86 0-.59-.02-1.18-.04-1.77 0-.59.05-1.18.05-1.77-.01-.59.08-1.17.12-1.75l.06-.87c.02-.29.08-.58.12-.87l.11-.86c.03-.29.07-.58.13-.86.12-.57.22-1.14.31-1.71.15-.56.28-1.13.41-1.69.05-.29.14-.56.23-.84l.24-.83c.66-2.21 1.5-4.38 2.51-6.46 1.02-2.08 2.23-4.07 3.58-5.97l1.78-2.66c.25-.3.54-.57.86-.8.33-.22.66-.44 1.04-.6.74-.34 1.54 0 2.39.83.99.96 1.33 1.86.94 2.48-.26.43-.58.82-.92 1.18-1.93 2.18-3.54 4.61-4.9 7.15-.37.62-.63 1.3-.95 1.94-.17.32-.28.67-.42 1-.13.34-.27.67-.41 1l-.34 1.02c-.11.34-.26.67-.33 1.02-.17.7-.42 1.38-.53 2.09-.53 2.39-.97 4.8-1.23 7.3-.26 2.52-.33 5.07-.1 7.56.24 2.61.96 5.11 1.66 7.64.73 2.62 1.78 5.19 3.18 7.6 1.39 2.41 3.11 4.67 5.15 6.6.33.3.65.61.97.92.15.16.32.31.49.45l.5.44c.63.64 1.35 1.16 2.01 1.78.35.28.7.55 1.05.84l.51.43.54.39c.36.26.71.55 1.08.81.37.24.75.5 1.11.76 1.51.98 3.04 1.94 4.69 2.7.8.44 1.65.73 2.48 1.11.42.16.86.29 1.29.45l.64.23c.22.07.44.12.66.18l.83.23c.28.08.56.17.84.21.57.11 1.13.23 1.7.36.57.07 1.15.16 1.72.26.28.06.58.07.87.1l.87.1c2.34.23 4.71.36 7.09.51 4.92.26 9.84-.92 14.19-3.27.45-.27.93-.47 1.44-.64.5-.17 1-.37 1.53-.51.26-.07.53-.13.8-.21l.78-.26c.52-.17 1.08-.31 1.58-.55 1.34-.56 2.45-1.49 3.48-2.48 1.03-.99 2-2.04 3.14-2.92.56-.47 1.19-.89 1.72-1.41.55-.49 1.12-.98 1.59-1.55.34-.41.74-.78 1.08-1.19.33-.42.67-.84.98-1.27.32-.44.54-.93.77-1.42.1-.25.2-.5.28-.76.07-.27.12-.55.15-.83.04-.3.11-.59.21-.86.06-.13.12-.27.18-.39.06-.13.12-.27.19-.39.28-.51.66-.98 1.08-1.41 1.17-1.36 2.2-2.86 2.88-4.51.15-.35.32-.67.68-.93.35-.25.87-.44 1.77-.49"/><path d="M81.363 146.312c-.072.376-.114.75-.143 1.128-.033.377-.06.758-.074 1.14-.014.382-.016.767.002 1.152.016.387.095.766.176 1.15.585 2.956 1.325 5.866 2.212 8.74l.72 2.137.855 2.08c.27.7.64 1.36.98 2.04.34.67.69 1.34 1.1 1.97.45.68.83 1.4 1.28 2.08.45.68.88 1.37 1.3 2.06.91 1.35 1.76 2.73 2.7 4.07 1.85 2.68 3.77 5.34 5.87 7.9.43.51.89 1 1.37 1.48.24.23.49.46.74.68.26.21.54.4.82.58 3.2 2.13 6.01 4.62 9.2 6.73 1.81 1.17 3.76 2.12 5.77 2.9l1.51.59c.49.21 1.02.35 1.52.53.51.18 1.01.36 1.51.55.51.18 1.02.33 1.52.52 4.42 1.57 9.05 2.51 13.73 2.97 11.98 1.23 24.16-.75 35.31-5.75 2.46-1.14 4.96-2.28 7.3-3.73 1.2-.68 2.31-1.49 3.43-2.29.56-.4 1.07-.87 1.6-1.31.52-.45 1.05-.89 1.51-1.4 3.43-3.47 6.72-7.09 9.51-11.1 2.76-4.02 5.01-8.42 6.29-13.11.18-.56.31-1.14.47-1.71.16-.57.32-1.13.49-1.7l.92-3.41.39-1.73c.13-.58.27-1.15.34-1.74.16-1.17.38-2.33.4-3.51.02-.44.05-.89.08-1.33.04-.45.07-.89.07-1.33.01-.89.03-1.78-.01-2.67-.18-1.69 1.15-3.06 2.71-3.17 1.55-.1 2.86.88 3.19 2.58.22 1 .4 2.13.09 3.04-.2.54-.34 1.08-.5 1.62-.16.54-.3 1.07-.41 1.61-.12.54-.19 1.08-.29 1.62-.1.54-.2 1.08-.28 1.62l-.23 1.64-.3 1.62c-.1.54-.2 1.09-.31 1.63-.14.53-.29 1.06-.45 1.59-1.32 4.26-2.73 8.5-4.64 12.58-1.89 4.06-4.29 7.96-7.39 11.26l-.72.78c-.24.25-.5.5-.75.75l-1.51 1.5-1.56 1.44c-.52.48-1.02.97-1.57 1.42-.53.46-1.06.93-1.58 1.4-.52.47-1.08.9-1.61 1.37-1.04.95-2.15 1.81-3.2 2.75-2.9 2.47-6.19 4.41-9.63 5.93-3.44 1.52-7.03 2.61-10.65 3.39-.83.22-1.67.38-2.49.61-.41.11-.83.23-1.24.35-.41.12-.83.21-1.24.31-.83.2-1.66.44-2.5.59-.85.15-1.7.28-2.54.38-4.48.41-9 .78-13.49.24-3.89-.48-7.91-.31-11.85-1.03-4.37-.79-8.43-2.56-12.52-4.2-3.49-1.41-6.83-3.22-9.96-5.34-3.13-2.13-6.03-4.58-8.74-7.22-2.77-2.71-5.02-5.9-7.02-9.14-.39-.66-.79-1.3-1.21-1.93-.39-.65-.78-1.3-1.19-1.93l-.62-.94-.59-.97-1.22-1.9c-.77-1.29-1.62-2.54-2.37-3.86-.81-1.28-1.52-2.62-2.3-3.94-.51-.92-.89-1.88-1.26-2.84-.19-.48-.32-.98-.47-1.48l-.39-1.49-.19-.75-.14-.76-.3-1.51c-.23-1-.35-2.02-.57-3.03-.08-.41-.15-.82-.21-1.23-.03-.42-.05-.83-.07-1.25-.02-.84-.05-1.67.01-2.51l.22-2.5c.03-.41.09-.83.15-1.24l.16-1.24c.08-.63.09-1.45.89-1.66.39-.11.71-.01.99.17.29.18.56.44.81.67.83.73 1.31 1.54 1.62 2.41.35.86.56 1.78.79 2.69"/><path d="M261.443 215.408l-2.57 3.905c-.89 1.276-1.795 2.54-2.702 3.806l-1.36 1.88-1.42 1.84c-.95 1.22-1.9 2.45-2.89 3.66-2 2.37-3.99 4.76-6.13 7.02-1.06 1.13-2.11 2.28-3.21 3.38-1.1 1.09-2.21 2.18-3.33 3.26-4.53 4.26-9.29 8.31-14.38 11.93-2.51 1.86-5.15 3.53-7.79 5.22-1.33.82-2.69 1.59-4.05 2.37l-2.04 1.15c-.69.37-1.39.73-2.08 1.08-7.65 3.97-15.67 7.31-23.94 9.9-8.26 2.59-16.79 4.37-25.33 5.31-1.86.24-3.72.35-5.59.49l-2.8.17c-.94.06-1.87.06-2.8.09-1.86.03-3.73.06-5.6.03-1.87-.06-3.73-.14-5.6-.24-7.47-.49-14.93-1.63-22.21-3.47l-4.39-1.19-2.2-.6-2.18-.66-4.38-1.33c-1.45-.48-2.89-.97-4.34-1.46l-2.18-.73-2.15-.79-4.3-1.61-4.26-1.73-2.13-.88-2.1-.93c-1.33-.6-2.64-1.25-3.94-1.94-1.28-.71-2.54-1.48-3.8-2.26-2.53-1.52-4.92-3.24-7.41-4.8-3.2-2.12-6.29-4.43-9.29-6.82-.75-.59-1.52-1.17-2.27-1.77l-2.24-1.8c-1.51-1.19-3.04-2.35-4.57-3.52-.74-.56-1.45-1.17-2.13-1.81-.68-.64-1.35-1.31-1.96-2.03-1.25-1.42-2.41-2.91-3.56-4.37-.87-1.16-1.72-2.34-2.57-3.51L34 229.91c-.42-.59-.82-1.2-1.23-1.8-.82-1.2-1.647-2.39-2.497-3.57-.837-1.19-1.666-2.4-2.55-3.58-.68-.927-1.325-1.937-1.81-2.957-1.095-2.26-.57-3.446.36-4.01.87-.53 2.05.85 3.035 2.145 4.09 5.2 8.508 10.05 13.1 14.71 4.64 4.62 9.44 9.05 14.357 13.52 4.81 4.32 10.33 7.95 15.95 11.23 7.58 4.383 15.51 8.16 23.75 11.186 8.23 3.03 16.76 5.3 25.41 6.69 3.31.48 6.58 1.133 9.9 1.544 3.31.5 6.648.74 10.04.78 9.5-.033 19.08-1.12 28.46-3.143 9.386-2.03 18.57-4.99 27.4-8.75 1.22-.53 2.456-1.04 3.655-1.62 1.2-.58 2.39-1.17 3.58-1.78l1.772-.91 1.74-.975c1.15-.66 2.3-1.325 3.45-2 1.14-.685 2.24-1.42 3.36-2.14 1.1-.73 2.23-1.44 3.3-2.22 2.144-1.555 4.312-3.085 6.36-4.77 8.27-6.62 15.762-14.13 22.47-22.315 4.47-5.37 8.43-11.17 11.94-17.23 3.503-6.07 6.55-12.42 9.024-18.995.78-1.94 1.6-3.764 2.47-5.58.43-.9.874-1.803 1.273-2.73.39-.93.76-1.87 1.09-2.844.77-2.28 1.93-3.43 3.09-3.19 1.55.32 1.33 2.69.69 5.13-2.39 8.87-5.7 17.52-9.84 25.74-.43.84-.85 1.69-1.3 2.52l-1.4 2.47c-.95 1.64-1.89 3.28-2.92 4.86M49.99 153.99c.014-1.24-.01-2.494-.063-3.76-.02-1.266-.03-2.55-.08-3.84-.07-1.294-.027-2.6-.055-3.92l-.024-1.987.053-2.005c.12-5.355.65-10.91 2.19-16.19.26-.89.54-1.77.79-2.66.27-.88.47-1.776.75-2.65.55-1.75.99-3.523 1.57-5.257l.8-2.62.89-2.59c.56-1.74 1.27-3.44 1.94-5.15l.31-.75.35-.72c.24-.48.48-.96.74-1.42.52-.93 1.09-1.84 1.81-2.66.69-.81 1.29-1.67 1.85-2.57.59-.88 1.13-1.8 1.66-2.75.52-.97 1.16-1.86 1.82-2.74.67-.86 1.33-1.74 2.07-2.56.72-.82 1.44-1.65 2.14-2.5.71-.83 1.42-1.67 2.08-2.58.65-.93 1.39-1.79 2.13-2.66.75-.86 1.5-1.72 2.33-2.51.82-.8 1.64-1.6 2.49-2.37.87-.74 1.75-1.48 2.63-2.21 3.24-2.54 6.47-5.13 10-7.29l1.31-.82 1.36-.75c.91-.49 1.81-.98 2.74-1.42 1.89-.83 3.77-1.65 5.77-2.18.89-.25 1.64-.64 2.47-1.03 4.05-1.88 8.23-3.58 12.55-4.92 4.33-1.29 8.78-2.17 13.26-2.49 1.64-.07 3.28-.1 4.91-.09 1.63.08 3.27.13 4.89.23l2.43.18 1.22.08c.41.01.81.04 1.21.08.81.07 1.62.13 2.42.17.81.04 1.62.05 2.42.11.85.04 1.71.1 2.56.18.43.04.85.07 1.28.12l1.27.2c.85.13 1.69.28 2.53.43l.63.11.63.14 1.25.29 2.5.57 2.48.66c.82.23 1.66.4 2.48.65.82.24 1.65.46 2.48.67.59.16 1.18.35 1.75.57 1.07.4 1.9.97 2.06 1.99.18 1.14-.49 1.84-1.55 2.23-1.39.52-2.73.48-4.11.3-1.38-.19-2.74-.68-4.14-1-.81-.21-1.62-.43-2.43-.66-.81-.22-1.62-.41-2.43-.62-.82-.2-1.62-.44-2.44-.62l-2.47-.52-1.24-.25c-.41-.07-.83-.12-1.25-.18-.83-.11-1.66-.21-2.5-.29-.83-.1-1.68-.09-2.52-.1-.84 0-1.68.02-2.52.08-.96.11-1.92.13-2.88.1-.48-.01-.96-.04-1.44-.08-.48-.02-.96-.04-1.44-.08-.96-.07-1.93-.16-2.89-.26-.96-.06-1.93-.11-2.89-.13-5.27-.11-10.36 1.19-15.22 2.88l-2.91 1.07c-.96.38-1.9.78-2.86 1.14l-1.44.55c-.48.19-.96.38-1.44.56-.48.18-.97.35-1.46.51-.49.16-.99.31-1.48.48-2.8.89-5.49 2.15-8.07 3.59-1.28.74-2.58 1.44-3.82 2.24l-1.88 1.15c-.64.37-1.24.79-1.87 1.17-4.01 2.46-7.59 5.56-10.8 8.96-3.22 3.4-6.12 7.03-9.03 10.68L70.7 92c-.594.79-1.137 1.62-1.707 2.43l-.844 1.23c-.27.42-.53.84-.79 1.26-.52.85-1.05 1.69-1.56 2.548-.95 1.746-1.94 3.474-2.76 5.29l-.63 1.354-.31.678-.28.7-1.11 2.78c-.37.94-.66 1.91-1 2.87l-.48 1.44c-.16.48-.29.97-.43 1.46l-.84 2.92-.7 2.95c-.11.5-.24.98-.34 1.48l-.28 1.49c-.18 1-.4 1.99-.54 2.99-.28 2.01-.6 4.01-.76 6.02-.47 5.03-.65 10.1-.59 15.18.05 5.03.96 9.98 2.98 14.56.61 1.31.98 2.74 1.57 4.08.66 1.56.48 2.88-.69 3.67-.56.39-1.15.5-1.73.36-.57-.15-1.12-.57-1.63-1.25-.35-.47-.69-.97-1.01-1.48-.32-.51-.63-1.04-.87-1.6-.43-.95-.82-1.92-1.2-2.92-.19-.5-.35-1.01-.5-1.53-.15-.52-.29-1.05-.43-1.6-.14-.54-.27-1.1-.4-1.67-.13-.57-.21-1.16-.31-1.77-.09-.6-.18-1.23-.26-1.86-.08-.64-.18-1.29-.21-1.97"/><path d="M80.223 201.244c7.02 7.227 15.326 13.18 24.364 17.703.823.39 1.66.752 2.5 1.097.42.168.838.348 1.265.5l1.288.438c.858.29 1.714.582 2.563.886.862.27 1.718.553 2.564.87l1.397.523 1.416.47c.946.31 1.89.63 2.84.92 1.92.52 3.83 1.12 5.787 1.52 3.886.94 7.86 1.51 11.855 1.86 6.392.5 12.9.24 19.21-1.22 5.106-1.18 10.327-2.18 15.31-3.99 1.297-.51 2.616-.98 3.893-1.55 1.263-.59 2.52-1.2 3.702-1.92 5.84-3.6 11.338-7.45 16.874-11.43 2.99-2.22 5.79-4.7 8.14-7.56 1.22-1.38 2.27-2.92 3.29-4.43.51-.77.95-1.58 1.4-2.37.45-.8.89-1.6 1.26-2.44.51-1.13 1.18-2.13 1.86-3.14.67-1.01 1.39-1.99 2.08-2.99.44-.69.87-1.4 1.28-2.11.41-.71.83-1.42 1.17-2.17.7-1.48 1.42-2.95 1.98-4.5l.88-2.29c.28-.77.52-1.55.78-2.32.25-.78.55-1.53.77-2.32.23-.78.47-1.56.72-2.33.37-1.07.68-2.06 1.21-2.84.54-.79 1.28-1.38 2.41-1.68 1.34-.38 2.02.26 2.65 1.32 1.18 1.94.9 4.02-.44 6.18-.41.68-.77 1.37-1.14 2.07-.38.69-.73 1.39-1.07 2.11-.34.71-.63 1.44-.97 2.17-.33.72-.65 1.45-.95 2.2l-.63 1.49-.7 1.46c-.48.96-.94 1.95-1.46 2.89l-1.6 2.83c-.53.95-1.14 1.84-1.7 2.76l-.86 1.38c-.29.46-.61.9-.91 1.34-.61.89-1.2 1.8-1.83 2.68-.63.87-1.26 1.75-1.89 2.63l-.46.66-.49.65-.97 1.3-.99 1.34c-.34.44-.7.85-1.06 1.27-.73.84-1.45 1.68-2.21 2.48-.78.79-1.57 1.57-2.36 2.33-.39.39-.8.76-1.22 1.12l-1.25 1.09-1.26 1.08c-.43.35-.87.68-1.31 1.02-.88.67-1.74 1.36-2.64 2l-2.71 1.91c-.45.33-.91.63-1.38.93l-1.39.9c-4.72 3.06-9.76 5.71-14.56 8.8-.76.48-1.62.96-2.48 1.2-4.99 1.24-9.93 2.43-14.93 3.35l-1.88.33c-.63.11-1.25.23-1.88.3l-3.78.5c-1.27.12-2.53.21-3.8.31l-.95.07-.95.03-1.9.04c-4.87.06-9.82-.18-14.5-1.62-.43-.12-.87-.22-1.32-.29-.44-.1-.9-.18-1.35-.25-.91-.14-1.84-.25-2.75-.41-10.16-2-20.05-5.64-28.95-10.98-4.34-2.59-8.16-5.94-12.16-8.88-4.97-3.66-8.92-8.33-12.33-13.34-.51-.75-.98-1.52-1.43-2.3l-1.26-2.39-1.29-2.37c-.44-.79-.92-1.55-1.46-2.29-.53-.71-.72-1.81-.11-2.34.77-.67 1.7-.03 2.44.66.59.53 1.15 1.09 1.67 1.68.53.58 1 1.21 1.52 1.81.5.61.98 1.23 1.45 1.87l.71.95.73.94 1.58 2.06c.53.68 1.09 1.34 1.64 2.02 1.07 1.36 2.25 2.64 3.42 3.93l.1-.09M214.78 28.15c-8.312-5.304-17.132-9.835-26.364-13.397-9.23-3.554-18.88-6.092-28.662-7.492-8.19-1.17-16.427-1.73-24.674-1.43-8.258.32-16.564 1.51-24.57 3.79-4.77 1.34-9.518 2.74-14.21 4.33-2.338.82-4.65 1.71-6.945 2.63-1.134.5-2.262 1-3.382 1.52-1.116.53-2.242 1.04-3.32 1.64-1.625.88-3.232 1.79-4.824 2.71-1.57.97-3.13 1.95-4.68 2.94-.78.49-1.54 1.01-2.3 1.53l-2.29 1.54c-1.54 1.01-3.03 2.09-4.55 3.13-1.03.72-2.04 1.4-3.03 2.02-1 .61-2.01 1.09-3.11 1.31-1.68.34-3.25.63-3.45-.8-.18-1.39.27-2.95 2.12-4.76.48-.47 1.07-.91 1.64-1.3 7.32-5 14.9-9.6 22.85-13.56 7.96-3.98 16.27-7.3 24.87-9.66.82-.24 1.64-.44 2.47-.64l2.49-.6 2.49-.57c.83-.18 1.67-.33 2.51-.49 1.67-.3 3.35-.61 5.04-.86 1.68-.22 3.37-.43 5.06-.63 6.76-.7 13.52-.95 20.24-.61l2.52.12c.84.05 1.68.13 2.52.2 1.68.15 3.37.31 5.05.49 3.36.46 6.71.9 10.03 1.6l2.49.5 1.24.25 1.23.3c1.65.4 3.3.81 4.94 1.23 1.64.44 3.26.94 4.88 1.42.81.25 1.62.49 2.43.75l2.4.83c7.73 2.67 15.23 6.02 22.34 10.01 7.1 4.02 13.8 8.68 19.95 13.93 7.54 6.42 14.46 13.53 20.54 21.3 6.08 7.77 11.36 16.17 15.64 25.05l1.23 2.47c.85 1.9.92 3.38.28 4.41-.74 1.18-1.9.14-3.03-.99-1.14-1.17-2.19-2.46-3.14-3.87-.95-1.42-1.78-2.97-2.65-4.57-.58-1.09-1.18-2.18-1.78-3.26-.6-1.09-1.27-2.13-1.92-3.18-.66-1.05-1.31-2.1-2-3.13l-2.12-3.06c-1.39-2.05-2.92-4-4.41-5.99-.73-1-1.52-1.96-2.29-2.93l-2.32-2.92c-.91-1.11-1.85-2.19-2.79-3.27l-1.43-1.62-1.49-1.56c-1-1.04-2.01-2.06-3.03-3.08-1.05-.99-2.11-1.97-3.18-2.94-.54-.48-1.07-.97-1.61-1.45l-1.66-1.39c-1.12-.92-2.23-1.85-3.36-2.75l-3.47-2.62c-.59-.43-1.16-.87-1.75-1.29l-1.79-1.24m-93.1 48.8c.47-.16 1.09-.3 1.77-.49.69-.16 1.44-.38 2.21-.49 3.78-.64 7.55-1.18 11.35-1.52 3.8-.33 7.66-.46 11.47-.06 3.75.39 7.48.96 11.13 1.91 3.65.94 7.22 2.27 10.5 4.15.63.32 1.22.71 1.83 1.05.61.35 1.24.66 1.84 1.02 1.2.74 2.46 1.38 3.64 2.16 2.43 1.45 4.74 3.11 6.91 4.93 5.6 4.82 10.44 10.49 14.48 16.67 2.18 3.34 3.97 6.92 6.43 10.18.23.3.41.59.5.89.09.29.13.58.13.86 0 .57-.17 1.13-.38 1.72-.37 1.07-1.17 1.63-2.39 1.74-1.17.11-1.8-.5-2.17-1.24-1.59-3.05-3.59-5.76-5.17-8.74-3.29-6.23-7.86-11.68-12.89-16.59-3.13-3.03-6.68-5.61-10.44-7.8-3.76-2.19-7.73-3.99-11.81-5.53-.56-.24-1.15-.38-1.73-.56-.59-.16-1.17-.34-1.76-.47l-1.79-.33-.89-.15c-.29-.04-.6-.07-.9-.1-1.19-.12-2.38-.29-3.59-.34-.59-.04-1.19-.1-1.79-.16-.6-.02-1.2-.06-1.8-.11-3.97-.34-8.04-.54-11.98.13-.38.07-.77.13-1.16.18-.38.05-.77.1-1.16.18-.77.13-1.54.25-2.32.35-.77.12-1.53.27-2.31.39-.38.07-.78.11-1.16.2l-1.15.26c-1.54.3-3.04.78-4.53 1.29-.72.29-1.45.61-2.16.94l-.53.25-.51.3c-.34.2-.68.4-1.01.62-.34.21-.7.4-1.078.55-.37.17-.75.33-1.14.47-.77.29-1.62.47-2.39.76-.96.33-2.19.47-2.91-.9-.75-1.42-.16-2.44 1.04-3.17 3.56-2.06 7.29-3.84 11.73-5.39"/><path d="M175.594 129.886c-.26-2.743-1.244-5.288-2.537-7.602l-.234-.44-.27-.42c-.178-.278-.352-.56-.522-.844-.35-.557-.76-1.082-1.11-1.642-.2-.26-.4-.52-.6-.787-.2-.26-.36-.55-.59-.79-.21-.25-.41-.51-.61-.78l-.29-.4-.32-.38-.78-.93c-.29-.28-.59-.56-.88-.84l-.44-.41-.48-.37c-.32-.24-.63-.5-.96-.74-.68-.43-1.31-.94-2.01-1.34-.34-.21-.66-.46-1-.66s-.68-.42-1.01-.65c-2.01-1.33-4.19-2.37-6.44-3.15-2.25-.79-4.58-1.32-6.94-1.66-.59-.06-1.16-.28-1.74-.55-.56-.21-1.13-.34-1.71-.44-.58-.08-1.17-.05-1.76-.06-1.18.07-2.35.25-3.49.43-.21.03-.43.06-.64.07-.21.04-.42.05-.63.01-.41-.08-.83-.36-1.27-1.08-.29-.47-.49-.91-.54-1.36-.05-.44.03-.9.32-1.31.49-.7 1.09-1.19 1.8-1.21.6.01 1.18-.04 1.77-.06.59.01 1.19.11 1.77.3.17.06.35.16.52.23.17.08.34.14.5.09.48-.15.96-.26 1.45-.35.49-.09.96-.08 1.45-.1.97-.06 1.91.15 2.86.28.47.1.93.23 1.39.34l.69.17.68.22c.45.15.91.27 1.37.4.45.16.9.29 1.36.4 2.22.6 4.38 1.45 6.45 2.47.51.28 1.04.51 1.55.8.5.3 1 .58 1.52.85.49.32.98.63 1.48.93.5.31.96.66 1.45.97.32.19.61.42.9.65l.88.68c.57.47 1.11.98 1.67 1.46.51.54 1.06 1.04 1.56 1.58l.74.83.37.41c.12.14.23.29.35.43 1.89 2.27 3.55 4.68 5.2 7.12.12.18.26.35.36.54l.32.57c.21.38.43.76.63 1.15l.53 1.2c.09.2.18.4.26.6l.21.62.44 1.23c.11.42.23.84.35 1.26l.18.63.14.64c.1.42.2.84.32 1.26.13.66.16 1.32.72 1.89.47.54.44 1.34.07 2.01-.41.69-1.21 1.26-2.21 1.43-.82.14-1.73-.04-2.42-.39-.71-.35-1.28-.85-1.33-1.48-.01-.17-.03-.35-.06-.52l-.07-.51c-.05-.34-.07-.68-.12-1.01-.15-.64-.25-1.26-.47-1.76M.98 138.24c.076-9.79 1.43-19.533 3.816-28.93 2.38-9.4 5.782-18.46 9.94-27.11 3.91-8.15 8.793-16 14.76-22.62.604-.67 1.19-1.39 1.82-2.04 2.06-2.09 4.22-3.61 5.41-2.35 1.08 1.15-.49 3.6-1.46 5.67-.54 1.23-1.516 2.15-2.32 3.2-4.218 5.56-8.09 11.43-11.415 17.645-3.32 6.21-6.16 12.715-8.41 19.45-.58 1.81-1.07 3.65-1.53 5.5-.41 1.86-.76 3.733-1.11 5.604l-.26 1.4-.23 1.41-.47 2.82L9 120.7c-.162.94-.342 1.88-.542 2.82-.25 1.2-.48 2.41-.67 3.62-.16 1.22-.303 2.44-.44 3.67-.12 1.23-.273 2.46-.35 3.69-.09 1.23-.174 2.46-.262 3.68-.055.7-.103 1.396-.145 2.095-.03.7-.04 1.398-.05 2.098-.01 1.4-.01 2.8.02 4.2.01.7.05 1.4.09 2.11l.15 2.106c.11 1.4.2 2.81.37 4.21l.53 4.2.28 2.09.34 2.09c.23 1.39.46 2.78.68 4.18l.77 4.16c.18.98.38 1.95.6 2.92.25.96.51 1.92.78 2.87.28.96.56 1.9.85 2.85.29.95.64 1.88.96 2.81 1.29 3.74 2.75 7.4 4.02 11.15.62 1.74 1.46 3.35 2.34 4.93.91 1.56 1.88 3.07 2.71 4.69.71 1.4 1.37 2.72 1.82 4.02.46 1.29.72 2.55.73 3.77.04 1.79-.42 3.19-1.99 3.04-1.66-.15-2.97-1.82-4.23-4.18-1.38-2.49-2.64-5.06-3.92-7.61-.64-1.27-1.19-2.59-1.77-3.9-.55-1.31-1.12-2.62-1.59-3.96-.48-1.35-.97-2.7-1.47-4.04l-.75-2.01-.71-2.02-1.44-4.02-1.37-4.01c-1.07-2.99-1.82-6.06-2.51-9.14-.33-1.54-.57-3.09-.82-4.64-.23-1.55-.47-3.1-.61-4.66-.15-1.55-.28-3.11-.39-4.66-.07-.78-.1-1.56-.13-2.33l-.08-2.33-.06-2.33-.02-1.16V142c0-1.4.19-2.786.28-3.76m227.16-5.953c-.08-5.42-.95-10.72-2.43-15.78-1.48-5.05-3.56-9.86-6.1-14.39-.37-.65-.71-1.32-1.04-2.002-.16-.34-.31-.69-.48-1.03l-.49-1.027c-.65-1.37-1.26-2.79-2.02-4.11-1.09-2.02-2.37-3.93-3.69-5.81-.69-.91-1.4-1.81-2.12-2.71-.71-.89-1.51-1.72-2.27-2.57-3.13-3.33-6.63-6.31-10.39-8.86-2.01-1.3-2.99-3.01-2.56-4.27.22-.62.82-1.08 1.63-1.22.81-.14 1.85.01 2.98.53 4.01 1.908 7.14 5.28 10.23 8.46l.9.9c.29.31.57.625.86.94l1.68 1.906c.57.63 1.07 1.31 1.59 1.975l1.55 2.01c.97 1.39 1.95 2.77 2.85 4.2l1.33 2.16.66 1.08.61 1.11c3.32 5.9 6.05 12.09 8.63 18.41.36.82.65 1.68.94 2.54.29.86.56 1.73.83 2.6.23.88.45 1.76.66 2.65.2.89.43 1.77.57 2.67.3 1.8.64 3.59.82 5.41l.31 2.72c.08.9.13 1.81.21 2.72.05.72.01 1.42-.11 2.06-.13.63-.36 1.22-.63 1.7-.55.98-1.31 1.58-2.12 1.6-.86.01-1.58-.4-2.12-1.16-.27-.38-.5-.86-.68-1.41-.18-.56-.35-1.19-.45-1.91-.12-.85-.1-1.73-.12-2.13m-69.71 17.06c.31-.83.54-1.67.77-2.5.15-.85.29-1.68.32-2.53.02-.19 0-.38.03-.56.01-.09.02-.18.04-.28l.02-.14v-.14c-.02-.38.03-.75-.2-1.15-.1-.21.23-.4.72-.55.47-.15 1.14-.26 1.77-.25.66.01 1.39.13 1.96.34.58.21.9.49.86.77-.05.23-.04.46-.07.69-.03.22-.03.45-.02.69l.03.35v.34c.01.23.02.47.05.71.03.24-.01.46-.01.7-.02.23 0 .47-.04.7-.05.23-.1.45-.17.67-.03.11-.06.22-.1.33-.06.11-.11.21-.18.31-.84 1.45-1.32 3-1.91 4.61-.04.11-.08.22-.15.31s-.16.17-.25.25c-.18.15-.37.29-.56.43-.2.13-.42.25-.59.4-.17.14-.28.34-.38.54-.1.22-.58.17-1.2-.25-.76-.52-1.18-1.1-1.43-1.54-.3-.55-.31-.92-.29-1.25.06-.42.13-.82.34-1.12.12-.15.18-.32.3-.47.11-.15.25-.28.37-.43m-68.12-41.88c-1.16 2.41-2.66 4.61-4.19 6.91L85 116.11c-.38.585-.688 1.21-1.026 1.82-.693 1.22-1.19 2.54-1.645 3.87-.44 1.6-1.1 3.14-1.19 4.84-.13 1.22-.42 2.474-.89 3.636-.3.712-.74 1.1-1.27 1.14-.53.04-1.13-.27-1.65-.95-1.1-1.53-1.27-3.38-1.03-5.18.39-3.844 1.69-7.577 3.73-10.808 2.67-4.194 5.15-8.33 7.96-12.32.47-.68.94-1.364 1.47-2.007.51-.65 1-1.32 1.53-1.96l1.63-1.89c.54-.63 1.14-1.2 1.71-1.81 1.06-1.12 1.67-.87 2.12.54.29.84.38 1.61.3 2.34-.04.36-.13.71-.26 1.05-.13.34-.3.67-.49 1.02-.41.71-.84 1.38-1.31 2.03-.44.67-.9 1.33-1.39 1.97l-.37.48-.36.5c-.24.33-.49.66-.75.99-.25.33-.52.65-.78.99l-.76 1.03m59.73 49.7c.39-.06.8-.12 1.12-.33.17-.1.35-.17.5-.29l.44-.39c.07-.07.15-.12.21-.2l.19-.23.39-.45c.11-.17.22-.34.34-.49.06-.08.12-.16.18-.23.05-.09.1-.18.15-.26.1-.15.19-.29.37-.33.18-.04.39-.03.79.17.56.29 1.21.69 1.9 1.51.57.67.76 1.19.68 1.51-.03.11-.05.22-.09.33l-.12.29c-.09.19-.2.36-.33.5-.15.18-.34.31-.51.46-.17.15-.34.31-.51.47-.19.13-.37.27-.55.41-.18.14-.36.29-.56.39l-.59.34-.15.09-.16.07-.32.12c-.21.08-.42.18-.64.23-.23.05-.45.09-.68.13-.41.1-.86.1-1.22.28-.18.1-.37.17-.54.3-.17.13-.32.29-.46.51-.15.23-.36.32-.58.36-.26.04-.56-.48-.84-1.17-.25-.64-.28-1.12-.25-1.48.05-.62.11-1.14.22-1.53.1-.43.26-.69.53-.72.18-.03.34-.11.52-.16l.26-.08c.09-.02.18-.05.26-.09m100.88 10.3c.51-1.43.86-2.88 1.09-4.35.18-1.47.26-2.95.28-4.45.03-1.14.03-2.3.08-3.45.05-1.15.14-2.3.22-3.45l.17-3.46.08-1.73c.02-.57 0-1.15 0-1.72-.03-2.09.7-3.53 2.05-4.05 1.43-.55 2.46-.09 3.2 2.28.35 1.13.7 2.25.92 3.42.19 1.17.24 2.39.05 3.72l-.34 2.45-.4 2.46c-.27 1.64-.52 3.28-.91 4.89-.37 1.62-.74 3.22-1.25 4.78s-1.09 3.09-1.76 4.56c-1.08 2.25-2.27 5.95-4.18 4.8-1.17-.7-1.03-1.78-.58-2.99.45-1.21 1.24-2.55 1.26-3.7m-126.5-63.3c.59-.23 1.19-.45 1.77-.69.61-.21 1.21-.39 1.81-.58.31-.09.69-.03 1.04.1.43.17.9.39 1.15 1.2.24.77.15 1.32-.15 1.64-.24.27-.46.57-.66.91-.21.32-.43.6-.74.74-1.92.9-3.72 2.03-5.42 3.28-.14.1-.29.2-.46.25-.17.04-.35.07-.54.07-.19 0-.37-.01-.57-.07-.4-.12-.84-.43-1.33-1.08-.47-.61-.7-1.15-.76-1.65-.06-.49.03-.95.25-1.33.25-.45.6-.78.98-1.06.39-.26.84-.44 1.24-.68l.57-.31c.2-.1.4-.18.6-.26.41-.17.81-.34 1.2-.52l.03.06m154.97 19.6l.29 2.57.19 2.57.38 5.14c.09 1.68.02 3.18-.44 4.56-.82 2.48-1.93 2.62-2.8.18-.33-.93-.7-1.84-1.02-2.8-.328-.96-.553-1.97-.714-3.1l-.72-5.4c-.27-1.8-.58-3.59-.86-5.39-.26-1.8-.61-3.59-.89-5.39-.15-.9-.29-1.8-.41-2.71l-.44-2.71c-.29-1.87-.27-3.41-.04-4.5.22-1.09.7-1.74 1.39-1.83.61-.08 1.46.56 2.22 1.64.74 1.08 1.43 2.59 1.78 4.2.49 2.13.78 4.3 1.1 6.46.33 2.16.51 4.33.72 6.49l.22-.01"/></g></svg>