<?xml version="1.0" encoding="UTF-8"?>
<svg width="230px" height="238px" viewBox="0 0 230 238" version="1.1" xmlns="http://www.w3.org/2000/svg" xmlns:xlink="http://www.w3.org/1999/xlink">
    <!-- Generator: Sketch 43.2 (39069) - http://www.bohemiancoding.com/sketch -->
    <title>d10</title>
    <desc>Created with Sketch.</desc>
    <defs></defs>
    <g id="Page-1" stroke="none" stroke-width="1" fill="none" fill-rule="evenodd">
        <path d="M105.48744,2.09081815 C110.741082,0.383806421 119.253389,0.382009847 124.51256,2.09081815 L176.02167,18.8271425 C181.275312,20.5341543 188.162969,25.5361094 191.413316,30.0098276 L223.247696,73.8260937 C226.494626,78.2951084 229.126782,86.3902385 229.126782,91.9200583 L229.126782,146.079942 C229.126782,151.603948 226.498043,159.700188 223.247696,164.173906 L191.413316,207.990172 C188.166387,212.459187 181.280841,217.464049 176.02167,219.172857 L124.51256,235.909182 C119.258918,237.616194 110.746611,237.61799 105.48744,235.909182 L53.9783299,219.172857 C48.724688,217.465846 41.8370308,212.463891 38.5866842,207.990172 L6.75230353,164.173906 C3.50537427,159.704892 0.873218045,151.609762 0.873218045,146.079942 L0.873218045,91.9200583 C0.873218045,86.3960523 3.50195699,78.2998119 6.75230353,73.8260937 L38.5866842,30.0098276 C41.8336135,25.5408129 48.7191587,20.5359508 53.9783299,18.8271425 L105.48744,2.09081815 Z" id="d10" fill="#FFFFFF"></path>
    </g>
</svg>