<?xml version="1.0" encoding="UTF-8"?>
<svg width="240px" height="240px" viewBox="0 0 240 240" version="1.1" xmlns="http://www.w3.org/2000/svg" xmlns:xlink="http://www.w3.org/1999/xlink">
    <!-- Generator: Sketch 43.2 (39069) - http://www.bohemiancoding.com/sketch -->
    <title>Path</title>
    <desc>Created with Sketch.</desc>
    <defs></defs>
    <g id="Page-1" stroke="none" stroke-width="1" fill="none" fill-rule="evenodd">
        <rect id="Path" x="0" y="0" width="240" height="240"></rect>
        <path d="M120.979831,71.0036811 C110.581714,70.9309022 100.15619,71.9371499 89.7348818,74.0361363 C74.8344988,83.8655101 65.0277592,100.763932 65.0277592,120.000773 C65.0277592,139.350474 74.9515092,156.314819 89.9978917,166.114132 C100.237886,168.088656 110.50318,169.051659 120.749499,168.997865 C130.542535,168.946182 140.329246,167.968413 150.067465,166.081435 C165.074845,156.275793 174.971714,139.323578 174.971714,120.000773 C174.971714,100.785028 165.182368,83.9029543 150.31519,74.0688341 C140.562212,72.092728 130.77761,71.072241 120.979304,71.0036811 L120.979831,71.0036811 Z M69.37612,79.5578416 C45.9961699,87.5107849 22.74588,101.061377 1.42108547e-14,120.495459 C22.5239819,139.686945 45.9518957,153.064028 69.6897291,160.840297 C60.6240557,149.683499 55.1783267,135.466295 55.1783267,120.000773 C55.1783267,104.715617 60.5007203,90.6571549 69.37612,79.5567868 L69.37612,79.5578416 Z M170.673425,79.6063609 C179.521944,90.6993456 184.821146,104.738295 184.821146,120.000773 C184.821146,135.451001 179.389648,149.655548 170.344004,160.807072 C194.249447,152.970153 217.678415,139.523456 240,120.511808 C217.509751,101.300809 194.261569,87.6463225 170.672371,79.6058335 L170.673425,79.6063609 Z M120.008433,88.7696493 C123.298956,88.7696493 126.467725,89.2743554 129.446221,90.219954 C124.649847,92.6659587 121.35827,97.6507876 121.35827,103.404542 C121.35827,111.574767 127.984645,118.205032 136.149548,118.205032 C142.031695,118.205032 147.110053,114.759109 149.490846,109.782718 C150.59981,112.987627 151.203837,116.420367 151.203837,120.001301 C151.203837,137.241468 137.237429,151.216076 120.007379,151.216076 C102.777329,151.216076 88.8119751,137.24094 88.8119751,120.000773 C88.8119751,102.760606 102.778383,88.769122 120.008433,88.769122 L120.008433,88.7696493 Z" id="eye" fill="#FFFFFF" fill-rule="nonzero"></path>
    </g>
</svg>