<?xml version="1.0" encoding="UTF-8"?>
<svg width="500px" height="500px" viewBox="0 0 500 500" version="1.1" xmlns="http://www.w3.org/2000/svg" xmlns:xlink="http://www.w3.org/1999/xlink">
    <!-- Generator: Sketch 43.2 (39069) - http://www.bohemiancoding.com/sketch -->
    <title>Rectangle</title>
    <desc>Created with Sketch.</desc>
    <defs></defs>
    <g id="Page-1" stroke="none" stroke-width="1" fill="none" fill-rule="evenodd">
        <g id="eyeball" transform="translate(13.000000, 15.000000)" fill-rule="nonzero" fill="#FFFFFF">
            <g id="Group">
                <path d="M235.063962,470 C364.886203,470 470.127924,364.786916 470.127924,235 C470.127924,105.213084 364.886203,0 235.063962,0 C105.241721,0 0,105.213084 0,235 C0,364.786916 105.241721,470 235.063962,470 Z M315.917531,125.129648 C337.090293,125.374648 358.127017,130.749648 377.364251,141.849648 C443.026118,179.742648 461.357106,269.159648 419.932834,340.875648 C378.511564,412.585648 291.87599,441.429648 226.214123,403.537648 C160.551256,365.644648 142.221268,276.227648 183.644539,204.511648 C212.122288,155.208648 261.970852,126.171648 311.681379,125.148648 C313.093763,125.118648 314.505147,125.112648 315.916531,125.128648 L315.917531,125.129648 Z M331.117668,219.629648 L331.115667,219.631648 C330.521505,219.625648 329.928344,219.630648 329.333182,219.643648 C308.408488,220.130648 287.019668,232.398648 274.446247,254.120648 C256.15527,285.715648 264.541552,323.358648 291.578909,338.925648 C318.614265,354.492648 355.549315,342.897648 373.841293,311.302648 C382.258583,296.762648 385.014333,280.942648 382.913761,266.582648 C378.885665,281.532648 368.504841,292.179648 356.329528,292.179648 C340.658264,292.179648 327.954807,274.547648 327.954807,252.795648 C327.954807,239.406648 332.770117,227.585648 340.126119,220.469648 C337.156311,219.937648 334.145491,219.655648 331.117668,219.629648 Z" id="Shape"></path>
            </g>
        </g>
    </g>
</svg>